[img]http://img823.imageshack.us/img823/2229/886443700581600x60075.jpg[/img]

[code]Feed Me & Crystal Fighters - Love Is All I Got (Original Mix).m4a

Format                           : MPEG-4
Format profile                   : Apple audio with iTunes info
Codec ID                         : M4A 
File size                        : 6.04 MiB
Duration                         : 3mn 6s
Overall bit rate                 : 272 Kbps
Album                            : Love Is All I Got - Single
Album/Performer                  : Feed Me & Crystal Fighters
Part/Position                    : 1
Part/Total                       : 1
Track name                       : Love Is All I Got (Original Mix)
Track name/Position              : 1
Track name/Total                 : 1
Performer                        : Feed Me & Crystal Fighters
Composer                         : Jon Gooch, Sebastian Pringle, Graham Dickson & Gilbert Vierich
Genre                            : Dance
Recorded date                    : UTC 2012-10-26 07:00:00
Encoded date                     : UTC 2036-05-09 08:52:28
Tagged date                      : UTC 2012-10-28 15:43:44

Audio
ID                               : 1
Format                           : AAC
Format/Info                      : Advanced Audio Codec
Format profile                   : LC
Codec ID                         : 40
Duration                         : 3mn 6s
Bit rate mode                    : Variable
Bit rate                         : 264.6 Kbps
Maximum bit rate                 : 449 Kbps
Channel(s)                       : 2 channels
Channel positions                : Front: L R
Sampling rate                    : 44.1 KHz
Compression mode                 : Lossy
Stream size                      : 5.82 MiB (96%)
Language                         : English
Encoded date                     : UTC 2036-05-09 08:52:28
Tagged date                      : UTC 2012-10-27 16:58:38[/code]

[code]Feed Me & Crystal Fighters - Love Is All I Got (Original Mix).mp3

Format                           : MPEG Audio
File size                        : 7.26 MiB
Duration                         : 3mn 6s
Overall bit rate                 : 320 Kbps
Album                            : Love Is All I Got - Single
Album/Performer                  : Feed Me & Crystal Fighters
Part/Position                    : 01
Track name                       : Love Is All I Got (Original Mix)
Track name/Position              : 01
Track name/Total                 : 01
Performer                        : Feed Me & Crystal Fighters
Composer                         : Jon Gooch, Sebastian Pringle, Graham Dickson & Gilbert Vierich
Genre                            : Dance
Recorded date                    : 2012-10-26T07:00:00Z
Writing library                  : LAME3.99.5
Cover                            : Yes
Cover type                       : Cover (front)
Cover MIME                       : image/jpg

Audio
Format                           : MPEG Audio
Format version                   : Version 1
Format profile                   : Layer 3
Mode                             : Joint stereo
Mode extension                   : MS Stereo
Duration                         : 3mn 6s
Bit rate mode                    : Constant
Bit rate                         : 320 Kbps
Channel(s)                       : 2 channels
Sampling rate                    : 44.1 KHz
Compression mode                 : Lossy
Stream size                      : 7.11 MiB (98%)
Writing library                  : LAME3.99.5[/code]
[img]http://kastatic.com/i2/users/133df62bbf28e62494bb17fe11078f1a.gif[/img][img]http://kastatic.com/i2/users/133df62bbf28e62494bb17fe11078f1a.gif[/img]